<?xml version="1.0" encoding="UTF-8"?>
<svg version="1.1" xmlns="http://www.w3.org/2000/svg" width="6328" height="2204">
<path d="M0 0 C3.67190317 0.00263656 7.34380252 -0.00065002 11.01570517 -0.00311197 C17.46224563 -0.0066439 23.90877772 -0.00651706 30.35531852 -0.00392547 C40.033937 -0.00005565 49.71254857 -0.0020406 59.39116704 -0.0050905 C75.9663755 -0.01014501 92.54158104 -0.01047144 109.11678998 -0.00822697 C125.99811476 -0.00596066 142.87943746 -0.00589822 159.76076222 -0.00845969 C160.83235181 -0.00862088 161.9039414 -0.00878207 163.0080034 -0.00894815 C168.47971337 -0.0097807 173.95142334 -0.01064755 179.4231333 -0.01152568 C219.36420572 -0.01785827 259.30527715 -0.01923863 299.24634999 -0.01810821 C339.72923061 -0.01697606 380.21211032 -0.01800868 420.69499081 -0.02168067 C423.27668846 -0.02191267 425.85838612 -0.02214464 428.44008377 -0.02237659 C438.84962964 -0.02331614 449.25917551 -0.02427243 459.66872138 -0.02524778 C489.0118879 -0.02799311 518.35505445 -0.03037253 547.69822102 -0.03249975 C549.04285078 -0.0325973 550.38748054 -0.03269485 551.77285666 -0.03279536 C628.24369854 -0.03830053 704.71454048 -0.03860496 781.18538252 -0.03901622 C792.87499139 -0.03907946 804.56460026 -0.03914599 816.25420914 -0.03921677 C819.18414074 -0.03923446 822.11407235 -0.03925184 825.04400395 -0.03926889 C890.80266738 -0.03965669 956.56133069 -0.04183532 1022.31999406 -0.04439915 C1036.99655156 -0.04497071 1051.67310905 -0.04552468 1066.34966655 -0.04607978 C1068.53493985 -0.04616246 1068.53493985 -0.04616246 1070.76436009 -0.04624681 C1079.60772769 -0.04658132 1088.4510953 -0.04691508 1097.29446291 -0.04724838 C1101.72453535 -0.04741546 1106.15460778 -0.04758297 1110.58468021 -0.04775052 C1179.46480081 -0.0503524 1248.34492142 -0.0525827 1317.22504204 -0.05443271 C1319.47625486 -0.05449327 1319.47625486 -0.05449327 1321.77294672 -0.05455505 C1417.41088252 -0.05711819 1513.04881825 -0.05801754 1608.68675407 -0.05775471 C1613.3895807 -0.05774196 1618.09240732 -0.05772999 1622.79523394 -0.0577183 C1655.83436384 -0.05763596 1688.87349374 -0.05753325 1721.91262364 -0.05742542 C1731.38561629 -0.05739465 1740.85860894 -0.05736459 1750.33160159 -0.05733461 C1758.23331356 -0.05730951 1766.13502554 -0.05728372 1774.03673751 -0.05725649 C1923.27364402 -0.05674509 2072.51054999 -0.05816234 2221.74745625 -0.06760391 C2223.31852157 -0.06770327 2224.88958689 -0.06780262 2226.50826025 -0.06790499 C2275.59574373 -0.07101634 2324.68322719 -0.07438283 2373.77071064 -0.07779678 C2424.13870399 -0.08129823 2474.50669734 -0.08476871 2524.87469071 -0.08806117 C2526.42557703 -0.0881627 2527.97646336 -0.08826423 2529.57434625 -0.08836883 C2626.71270784 -0.09471867 2723.85106928 -0.09863998 2820.98943108 -0.09991916 C2822.4898567 -0.09993919 2823.99028232 -0.09995922 2825.53617538 -0.09997985 C2891.43324088 -0.1008552 2957.33030636 -0.10117494 3023.22737186 -0.10088896 C3049.73835973 -0.10077468 3076.24934761 -0.10071862 3102.76033548 -0.10068564 C3107.15593533 -0.10067924 3111.55153518 -0.10067017 3115.94713503 -0.10066049 C3183.16766113 -0.10052403 3250.38818673 -0.10186822 3317.60871261 -0.10770567 C3319.05790545 -0.10783134 3320.5070983 -0.10795702 3322.00020608 -0.1080865 C3345.31155252 -0.11011546 3368.62289894 -0.1122595 3391.93424536 -0.11441331 C3458.12524436 -0.12052388 3524.3162427 -0.12556519 3590.50724202 -0.12344213 C3591.8508953 -0.12339942 3593.19454859 -0.12335671 3594.57891864 -0.1233127 C3623.8962794 -0.12235924 3653.21364011 -0.1208433 3682.53100081 -0.11877598 C3694.22438306 -0.11795969 3705.91776532 -0.11721605 3717.61114758 -0.11649497 C3718.88667922 -0.11641432 3720.16221086 -0.11633367 3721.47639498 -0.11625058 C3761.89841694 -0.11372899 3802.3204352 -0.11733923 3842.74245652 -0.12451279 C3882.56303031 -0.13155355 3922.38359897 -0.13249449 3962.20417277 -0.12462586 C3967.66662492 -0.12354732 3973.12907708 -0.12253842 3978.59152925 -0.1215713 C3979.66084885 -0.12137928 3980.73016844 -0.12118727 3981.83189166 -0.12098943 C3998.64383728 -0.11815173 4015.45577433 -0.12195518 4032.26771859 -0.12865191 C4048.74554323 -0.13507804 4065.22335481 -0.13432478 4081.70117877 -0.12605803 C4090.4613476 -0.12185459 4099.22148798 -0.12066703 4107.98165484 -0.12880872 C4141.78405518 -0.15863107 4175.52688481 -0.17841662 4209.26997822 2.12801377 C4210.44853894 2.20764898 4211.62709966 2.28728419 4212.84137434 2.36933259 C4219.05486534 2.79748826 4225.25648141 3.29679112 4231.45747822 3.87801377 C4232.36168507 3.96071519 4233.26589192 4.0434166 4234.19749897 4.12862412 C4317.8788532 11.83431094 4400.29387813 28.98347807 4480.06337422 55.39748398 C4482.13479812 56.08326034 4484.20737302 56.76543818 4486.28023213 57.44686143 C4515.79512832 67.20011396 4544.81450021 78.62806245 4573.26997822 91.12801377 C4574.45897724 91.64847275 4575.64797627 92.16893174 4576.87300556 92.70516221 C4608.94106664 106.78879167 4640.75340745 122.05751157 4670.97017353 139.79451768 C4673.97169221 141.5348887 4677.01283003 143.19704209 4680.05879658 144.85799424 C4707.07312282 159.61043518 4733.04659579 176.51338422 4758.26997822 194.12801377 C4758.98025166 194.62220811 4759.6905251 195.11640244 4760.42232197 195.62557236 C4776.33997337 206.71316578 4791.97417075 218.1968972 4807.26997822 230.12801377 C4807.80864521 230.54583115 4808.3473122 230.96364853 4808.90230244 231.39412705 C4823.12070556 242.42343306 4836.95677449 253.90624088 4850.5727126 265.66902939 C4852.28202496 267.13836925 4854.00093021 268.59565248 4855.72310322 270.04988877 C4862.57611693 275.84933213 4869.24466364 281.80205194 4875.76973408 287.96932236 C4879.07303287 291.09083511 4882.41679907 294.15218577 4885.81709736 297.16805283 C4891.48849503 302.26729357 4896.89651992 307.60893323 4902.28169697 313.00692002 C4903.30424177 314.02878858 4904.32693475 315.05050889 4905.34976643 316.07209031 C4907.4749412 318.19580448 4909.5983322 320.32128116 4911.72041767 322.44808213 C4914.41985716 325.15323256 4917.12378325 327.85384684 4919.82906311 330.5531551 C4921.93544024 332.65589448 4924.03940018 334.76103957 4926.14266842 336.8668882 C4927.13813992 337.86301935 4928.13433403 338.85842897 4929.13131207 339.8530523 C4934.19104534 344.90344532 4939.15615534 349.97859983 4943.79828327 355.41820542 C4946.31888998 358.34663458 4948.99406849 361.13054134 4951.64497822 363.94051377 C4956.35151096 368.96490077 4960.79855886 374.11784768 4965.10200947 379.49520127 C4967.36030285 382.23770531 4969.72779156 384.83738967 4972.14497822 387.44051377 C4976.40727089 392.07229311 4980.31248315 396.89115949 4984.16182392 401.86336533 C4987.14238252 405.70999285 4990.19583612 409.46973957 4993.33247822 413.19051377 C4998.50477001 419.35997154 5003.41636194 425.70783551 5008.26997822 432.12801377 C5009.11568379 433.24273057 5009.11568379 433.24273057 5009.97847431 434.37996689 C5018.10267547 445.09690619 5026.05465773 455.90945397 5033.74116963 466.94442002 C5035.33631332 469.22276004 5036.94803365 471.48865004 5038.56294697 473.75301377 C5047.92471367 486.92433633 5056.666824 500.45165933 5065.26997822 514.12801377 C5066.12656025 515.48346299 5066.12656025 515.48346299 5067.00044697 516.86629502 C5085.24470116 545.77108729 5101.64919373 575.73903149 5117.26997822 606.12801377 C5117.77609638 607.10625107 5118.28221455 608.08448838 5118.80366963 609.09236924 C5139.71117641 649.60849323 5157.25447146 692.09570346 5172.26997822 735.12801377 C5172.50482929 735.80098496 5172.73968037 736.47395615 5172.98164814 737.16732041 C5202.82696734 822.93882311 5221.68362844 911.52677261 5232.26997822 1029.12801377 C5232.32111775 1029.95166428 5232.37225727 1030.77531479 5232.42494648 1031.62392441 C5238.08881176 1124.20709964 5232.29940445 1216.96635034 5215.26997822 1308.12801377 C5215.12171589 1308.92259995 5214.97345356 1309.71718613 5214.82069843 1310.53585068 C5198.89885923 1395.3958891 5172.50556296 1478.75143608 5136.26997822 1557.12801377 C5135.71299976 1558.34074929 5135.15637208 1559.55364597 5134.60005635 1560.76668564 C5123.78171361 1584.33685972 5112.45756543 1607.59597232 5099.85591572 1630.27254502 C5098.1954045 1633.26228321 5096.5452687 1636.25762351 5094.89497822 1639.25301377 C5087.04767903 1653.44029605 5078.84335854 1667.36796849 5070.26997822 1681.12801377 C5069.44360859 1682.45832627 5069.44360859 1682.45832627 5068.60054463 1683.81551377 C5055.16246586 1705.3862274 5040.92206024 1726.5070884 5025.85445088 1746.97420518 C5024.14670755 1749.2955783 5022.44836865 1751.62366745 5020.75044697 1753.95223252 C5014.19431658 1762.92228358 5007.51526797 1771.76890285 5000.59224385 1780.45858018 C4999.23927626 1782.1667767 4997.90125889 1783.8857552 4996.56685322 1785.60848252 C4991.41367249 1792.25019605 4986.11879431 1798.72809839 4980.61446064 1805.08235947 C4977.5594132 1808.61054912 4974.57603718 1812.18265196 4971.64497822 1815.81551377 C4967.79303329 1820.56066332 4963.73810633 1825.08289518 4959.60200947 1829.58113877 C4957.6459257 1831.71743126 4955.72810125 1833.87582034 4953.83247822 1836.06551377 C4950.07555763 1840.38421687 4946.20671269 1844.59803828 4942.32588642 1848.80501572 C4940.4647353 1850.82485226 4938.61439006 1852.85266516 4936.7716872 1854.88948838 C4928.17610578 1864.33545401 4919.18214501 1873.3682807 4910.14156025 1882.38680283 C4907.5074184 1885.01554786 4904.87871318 1887.64964555 4902.25044697 1890.28426377 C4900.55415319 1891.97989726 4898.85754952 1893.6752208 4897.16060322 1895.37020127 C4896.38646076 1896.14636796 4895.61231831 1896.92253464 4894.81471699 1897.72222153 C4890.68976038 1901.82964206 4886.4874923 1905.78191481 4882.0663802 1909.56972519 C4878.93901498 1912.28255759 4875.96168091 1915.15549648 4872.95747822 1918.00301377 C4867.76239138 1922.89326707 4862.45645064 1927.53231094 4856.87935322 1931.98738877 C4854.08566306 1934.27921842 4851.42789044 1936.68033189 4848.76997822 1939.12801377 C4843.44023429 1944.02175608 4837.90227571 1948.58908692 4832.26997822 1953.12801377 C4831.05170259 1954.12570182 4829.83430515 1955.12446288 4828.61763447 1956.12410752 C4818.9984836 1964.01375692 4809.19752895 1971.63139665 4799.26997822 1979.12801377 C4798.47011494 1979.73435654 4797.67025166 1980.34069932 4796.8461501 1980.96541611 C4794.3233525 1982.87723908 4791.79720539 1984.78455102 4789.26997822 1986.69051377 C4788.52457783 1987.25496201 4787.77917744 1987.81941025 4787.01118916 1988.40096299 C4772.71364158 1999.14382144 4757.90660765 2009.16374407 4743.01997822 2019.06551377 C4741.73738621 2019.91949753 4741.73738621 2019.91949753 4740.42888325 2020.7907335 C4727.85841594 2029.15413328 4715.26112762 2037.42757365 4702.26997822 2045.12801377 C4701.3167165 2045.69375107 4700.36345478 2046.25948838 4699.38130635 2046.84236924 C4686.46285493 2054.48516881 4673.44656406 2061.93984488 4660.26997822 2069.12801377 C4659.33025166 2069.64299424 4658.3905251 2070.15797471 4657.42232197 2070.68856064 C4629.61345957 2085.90707602 4601.35996677 2099.62854719 4572.29732197 2112.24715439 C4570.42520893 2113.06056767 4568.5545574 2113.87734247 4566.68404072 2114.69442002 C4481.41942939 2151.85844895 4390.94207274 2177.01621206 4229.14497822 2199.31551377 C4227.8448177 2199.43387086 4227.8448177 2199.43387086 4226.51839131 2199.55461899 C4183.51654239 2203.41566088 4140.38037742 2203.42344541 4097.24715443 2203.38495687 C4088.45256962 2203.37755286 4079.65799934 2203.38225258 4070.86341417 2203.38705232 C4054.36635399 2203.39572261 4037.86930642 2203.39504721 4021.37224555 2203.38913769 C4004.59096342 2203.38316688 3987.8096893 2203.38166547 3971.02840643 2203.38538612 C3969.95984639 2203.3856203 3968.89128636 2203.38585448 3967.79034572 2203.38609575 C3962.33331706 2203.38731095 3956.87628842 2203.38859538 3951.41925978 2203.38990298 C3911.67049332 2203.39927564 3871.92173167 2203.39882439 3832.17296475 2203.39334122 C3791.90530737 2203.38781645 3751.63765334 2203.3866654 3711.36999577 2203.39081589 C3710.09828666 2203.39094492 3708.82657755 2203.39107395 3707.5163318 2203.39120689 C3695.86127257 2203.39239002 3684.20621336 2203.39361784 3672.55115414 2203.39489931 C3643.32909893 2203.39810706 3614.10704368 2203.40061931 3584.88498836 2203.40266005 C3583.54614705 2203.40275385 3582.20730574 2203.40284766 3580.82789349 2203.4029443 C3514.88005082 2203.40749848 3448.93220874 2203.40443101 3382.98436611 2203.40060441 C3380.0965971 2203.40043713 3377.20882809 2203.40026987 3374.32105909 2203.40010262 C3372.88986399 2203.4000197 3371.45866889 2203.39993679 3369.98410424 2203.39985137 C3351.10954479 2203.39875829 3332.23498534 2203.39768507 3313.36042588 2203.39666478 C3311.91760324 2203.39658646 3310.47478059 2203.39650813 3308.98823605 2203.39642744 C3242.09149144 2203.39282309 3175.19474713 2203.39368258 3108.29800247 2203.39552569 C3100.99749476 2203.39572528 3093.69698706 2203.39591628 3086.39647935 2203.39610824 C3064.39123466 2203.39668943 3042.38598997 2203.39728332 3020.38074528 2203.39790344 C2953.27950428 2203.39979239 2886.17826327 2203.40099295 2819.07702225 2203.40160004 C2817.58302916 2203.40161378 2816.08903608 2203.40162752 2814.54977048 2203.40164167 C2717.81171591 2203.402519 2621.07366169 2203.40031837 2524.33560723 2203.39590088 C2522.79153348 2203.39583065 2521.24745974 2203.39576041 2519.65659589 2203.39568805 C2467.93950508 2203.39333542 2416.22241429 2203.39082325 2364.50532349 2203.38829479 C2208.11907591 2203.3806542 2051.73282952 2203.37646661 1772.44692779 2203.38852545 C1720.74404945 2203.39105192 1669.04117112 2203.39354898 1617.33829277 2203.39590088 C1615.02288416 2203.39600662 1615.02288416 2203.39600662 1612.66069961 2203.39611449 C1515.97370881 2203.40052596 1419.28671823 2203.40248905 1322.59972733 2203.40160004 C1321.10622661 2203.40158653 1319.6127259 2203.40157302 1318.07396759 2203.4015591 C1251.00920107 2203.40094562 1183.94443457 2203.39966894 1116.87966807 2203.39777904 C1094.88390513 2203.39715996 1072.88814218 2203.39657128 1050.89237923 2203.39599294 C1043.59598714 2203.39580095 1036.29959505 2203.39560625 1029.00320296 2203.39540522 C962.10675385 2203.39356776 895.21030513 2203.39303328 828.31385606 2203.39666478 C826.87198941 2203.39674272 825.43012275 2203.39682067 823.94456317 2203.39690097 C805.08135604 2203.39792451 786.21814891 2203.3990098 767.35494178 2203.40010262 C765.92492143 2203.40018544 764.49490107 2203.40026827 763.02154677 2203.4003536 C760.1364916 2203.40052073 757.25143642 2203.40068799 754.36638125 2203.4008554 C688.50835101 2203.40466695 622.65032148 2203.40727408 556.79229122 2203.40266005 C555.45517108 2203.40256668 554.11805094 2203.4024733 552.74041201 2203.4023771 C523.56453158 2203.40031649 494.38865122 2203.39767719 465.21277089 2203.39446949 C453.57563451 2203.39319776 441.93849812 2203.39199654 430.30136173 2203.39081589 C429.03197783 2203.39068506 427.76259393 2203.39055423 426.45474385 2203.39041943 C386.24174769 2203.38630746 346.02875499 2203.38830185 305.81575909 2203.39384943 C266.19489603 2203.3992881 226.57403837 2203.3986054 186.9531759 2203.3891127 C181.51552934 2203.38781059 176.07788277 2203.38657767 170.64023619 2203.38538612 C169.5757939 2203.38515014 168.51135161 2203.38491417 167.41465349 2203.38467104 C150.694032 2203.38114447 133.97341885 2203.38423816 117.25279834 2203.39022883 C100.85591575 2203.39596535 84.45904657 2203.39450155 68.06216528 2203.38555522 C59.34867875 2203.38099155 50.6352206 2203.37940958 41.92173555 2203.38718825 C-1.46151285 2203.42384837 -44.86945641 2203.39227902 -88.10502178 2199.31551377 C-89.02908825 2199.23153336 -89.95315471 2199.14755295 -90.9052232 2199.06102769 C-182.82993499 2190.69895967 -273.22960141 2171.15906561 -440.73002178 2108.12801377 C-441.89340069 2107.60078721 -443.05677959 2107.07356064 -444.2554124 2106.53035752 C-451.77070604 2103.11314708 -459.25793119 2099.63857704 -466.73002178 2096.12801377 C-467.7338792 2095.65766709 -468.73773662 2095.18732041 -469.77201397 2094.7027208 C-482.08294218 2088.92237088 -494.24227914 2082.92505058 -506.21781475 2076.47762314 C-508.9056085 2075.03368497 -511.60086387 2073.60426355 -514.29642803 2072.17488877 C-529.72008167 2063.95502039 -544.780802 2055.17896332 -559.73002178 2046.12801377 C-560.30377544 2045.78067185 -560.8775291 2045.43332993 -561.46866924 2045.0754625 C-574.03837751 2037.45827029 -586.5831524 2029.80928704 -598.7139085 2021.50496689 C-601.0998889 2019.87540411 -603.49507317 2018.25975953 -605.89017803 2016.64363877 C-617.66217029 2008.6824418 -629.26698606 2000.52694448 -640.73002178 1992.12801377 C-642.34590315 1990.94962281 -643.96178866 1989.77123752 -645.57767803 1988.59285752 C-660.04834774 1978.01326686 -674.0505686 1966.93536931 -687.93021709 1955.59578721 C-689.50312472 1954.31305245 -691.08100462 1953.03641964 -692.65970928 1951.76082627 C-703.23231848 1943.19607163 -713.47069659 1934.23062743 -723.55033428 1925.09285752 C-725.52841698 1923.30974713 -727.52857978 1921.55786608 -729.54252178 1919.81551377 C-737.2735784 1913.07440952 -744.85446056 1906.12779701 -752.02933819 1898.79622666 C-753.67704414 1897.17997992 -755.38169896 1895.69565409 -757.14408428 1894.20613877 C-762.54813522 1889.50289957 -767.57666666 1884.43115642 -772.63016826 1879.35823838 C-774.28929498 1877.69375099 -775.95370229 1876.0346793 -777.61869365 1874.37606064 C-782.69034334 1869.30725174 -787.6681765 1864.20514574 -792.32743389 1858.74886338 C-794.18984479 1856.59663606 -796.18795923 1854.60911923 -798.23002178 1852.62801377 C-801.60102243 1849.2968057 -804.77516208 1845.87689749 -807.85892803 1842.28035752 C-810.06082007 1839.74749215 -812.33198004 1837.28468854 -814.60502178 1834.81551377 C-818.75247436 1830.27276692 -822.66234873 1825.58681415 -826.52299053 1820.79988877 C-828.64625516 1818.22942327 -830.84814027 1815.76882014 -833.10502178 1813.31551377 C-837.16700158 1808.85793246 -840.88491149 1804.19637967 -844.57767803 1799.43465439 C-847.51030696 1795.65889464 -850.5156713 1791.96565396 -853.60502178 1788.31551377 C-864.95953474 1774.77606298 -875.34462008 1760.41530169 -885.73002178 1746.12801377 C-886.43747539 1745.15686631 -886.43747539 1745.15686631 -887.159221 1744.16609971 C-938.48700579 1673.4114641 -980.92719604 1595.77747716 -1092.93314678 1126.73738877 C-1092.94016919 1124.833819 -1092.947256 1122.93024946 -1092.95440227 1121.02668015 C-1092.97380068 1114.97712123 -1092.97883637 1108.92760065 -1092.98002178 1102.87801377 C-1092.98046364 1101.84726857 -1092.98090549 1100.81652337 -1092.98136074 1099.75454346 C-1092.98812074 1069.68806056 -1092.8456346 1039.74481401 -1089.98325664 1009.78841416 C-1089.7172766 1006.99411717 -1089.46305395 1004.19890013 -1089.21000225 1001.40340439 C-1085.22711864 957.9272729 -1078.73241363 914.84456096 -1069.73002178 872.12801377 C-1069.58327007 871.43010727 -1069.43651836 870.73220078 -1069.28531963 870.01314561 C-1067.2462759 860.35015387 -1065.04988412 850.7274246 -1062.73002178 841.12801377 C-1062.46702282 840.03801072 -1062.46702282 840.03801072 -1062.19871074 838.9259874 C-1046.59074277 774.44474093 -1024.7952554 711.6813331 -997.73002178 651.12801377 C-997.27159893 650.09547471 -996.81317608 649.06293564 -996.34086162 647.99910752 C-983.39768569 618.95542646 -969.30281721 590.13054057 -953.21732647 562.69246689 C-951.6407454 559.9740809 -950.1069872 557.23479956 -948.58158428 554.48738877 C-937.47816532 534.5076411 -925.25772336 515.2396948 -912.73002178 496.12801377 C-911.7941624 494.69328721 -911.7941624 494.69328721 -910.83939678 493.22957627 C-895.42838196 469.84503639 -878.86379195 447.27172251 -861.73002178 425.12801377 C-861.2493626 424.50555771 -860.76870342 423.88310166 -860.27347881 423.2417833 C-854.47017596 415.73975735 -848.49941122 408.41379611 -842.33939678 401.20223252 C-839.96733143 398.42068289 -837.65509466 395.59452716 -835.35502178 392.75301377 C-827.22038062 382.77684066 -818.74769759 373.08855079 -809.95145733 363.69100205 C-807.34182004 360.89951337 -804.79039843 358.06867497 -802.28080303 355.18660752 C-790.85032083 342.07380394 -778.51388159 329.80783195 -766.23002178 317.50301377 C-765.52652599 316.79692978 -764.8230302 316.0908458 -764.09821636 315.36336533 C-762.0513588 313.31057848 -760.00072752 311.26164079 -757.94877178 309.21395127 C-757.34081264 308.60401322 -756.73285351 307.99407517 -756.10647136 307.36565415 C-752.38847787 303.66727439 -748.55193388 300.16265703 -744.56803448 296.75194565 C-742.71060129 295.11085526 -740.96484056 293.39750936 -739.23002178 291.62801377 C-736.26266855 288.61387794 -733.15656886 285.82884044 -729.95267803 283.06942002 C-727.40025295 280.83997316 -724.91114664 278.54799995 -722.41752178 276.25301377 C-717.97751394 272.20280085 -713.41067897 268.37267255 -708.73392803 264.60067002 C-705.23335252 261.71918199 -701.82733645 258.74068998 -698.41752178 255.75301377 C-691.92712052 250.08511933 -685.25180542 244.71446225 -678.43314678 239.44881455 C-676.22305622 237.73485384 -674.0313343 235.99826147 -671.8389085 234.26180283 C-657.24012178 222.72095654 -642.5024812 211.46149764 -627.06205303 201.06551377 C-623.30963867 198.53722762 -619.63674387 195.91685106 -615.98002178 193.25301377 C-606.16393421 186.1535123 -595.9174821 179.67634341 -585.73002178 173.12801377 C-584.89245342 172.58854111 -584.05488506 172.04906846 -583.19193584 171.49324814 C-509.54225244 124.15776359 -430.04308013 86.35236256 -324.81516582 50.80001084 C-322.82721262 50.15933629 -320.84116642 49.51307075 -318.85551006 48.86531846 C-238.81704835 22.93339928 -154.71247088 8.54323083 -70.91752178 2.37801377 C-70.11494945 2.31875718 -69.31237713 2.25950059 -68.48548443 2.19844834 C-45.66337541 0.54338397 -22.8787595 -0.02357282 0 0 Z " fill="#B1FBE3" transform="translate(1092.7300217799602,-0.12801376907373196)"/>
<path d="M0 0 C6.5438276 3.90947073 13.19682646 7.60346539 19.875 11.27734375 C29.41013843 16.53946565 38.85884423 21.925989 48.25048828 27.43969727 C55.88591326 31.9197236 63.55898273 36.33118948 71.25 40.71484375 C80.30597968 45.87774065 89.34960172 51.06108128 98.375 56.27734375 C107.3204979 61.44573288 116.27854916 66.59165758 125.25 71.71484375 C125.83038025 72.04628387 126.4107605 72.377724 127.00872803 72.71920776 C131.13036978 75.07270651 135.25261551 77.42514628 139.375 79.77734375 C144.0837491 82.46411586 148.79222918 85.1513578 153.5 87.83984375 C154.37081207 88.33712479 154.37081207 88.33712479 155.25921631 88.8444519 C164.71735627 94.24682546 174.15546106 99.68340157 183.58642578 105.13305664 C191.50262974 109.7046135 199.43530755 114.24677163 207.375 118.77734375 C217.49915976 124.55501566 227.61147547 130.35271867 237.70019531 136.19213867 C243.21682418 139.38462443 248.74301615 142.55806761 254.2890625 145.69921875 C289.59642429 165.74468867 319.72744572 191.3258377 331.5625 231.83984375 C332.17706952 234.14960086 332.78160805 236.46205552 333.375 238.77734375 C333.66375 239.82148437 333.9525 240.865625 334.25 241.94140625 C342.05843893 270.99780879 338.97246295 306.85921099 325.375 333.77734375 C325.05901855 334.41575195 324.74303711 335.05416016 324.41748047 335.71191406 C317.46150092 349.70177494 309.13460986 361.3759326 298.375 372.77734375 C297.70210937 373.5146875 297.02921875 374.25203125 296.3359375 375.01171875 C283.26274222 388.8193632 266.50244813 397.51846861 250.09326172 406.69238281 C244.70807736 409.70636961 239.3531293 412.77315411 233.99765015 415.83950806 C232.24484102 416.8427967 230.4912954 417.84478659 228.73754883 418.84643555 C219.8643512 423.91571841 211.01170933 429.02018794 202.16357422 434.13305664 C193.65894201 439.04442704 185.13443522 443.92040181 176.60449219 448.78759766 C168.18132706 453.59452265 159.77210714 458.42500082 151.375 463.27734375 C141.80119842 468.80965002 132.20830682 474.30764937 122.60449219 479.78759766 C114.18132672 484.59452284 105.77215036 489.42507525 97.375 494.27734375 C88.42945532 499.44565427 79.47136584 504.59150701 70.5 509.71484375 C69.92028442 510.04595154 69.34056885 510.37705933 68.74328613 510.71820068 C62.83484347 514.09254876 56.92488673 517.46423341 51.01335144 520.8331604 C48.05011413 522.52209356 45.0873988 524.21194031 42.125 525.90234375 C41.54289764 526.23447876 40.96079529 526.56661377 40.36105347 526.90881348 C32.23430351 531.5479892 24.13807518 536.23714641 16.0625 540.96484375 C8.09916614 545.61740699 0.12944498 550.2582962 -7.875 554.83984375 C-8.77903564 555.36408936 -9.68307129 555.88833496 -10.61450195 556.4284668 C-22.04245757 562.93331933 -34.05331234 567.1126429 -46.625 570.77734375 C-47.66785156 571.08929687 -48.71070312 571.40125 -49.78515625 571.72265625 C-61.76550295 575.04425978 -74.2669767 575.08629433 -86.625 574.77734375 C-87.7490625 574.76058594 -88.873125 574.74382813 -90.03125 574.7265625 C-126.41840331 573.34226862 -159.26126774 554.71974183 -184.19140625 529.14453125 C-201.08831225 510.90387807 -213.2955021 487.27429601 -217.625 462.77734375 C-217.76776367 462.00600098 -217.91052734 461.2346582 -218.05761719 460.43994141 C-220.55845938 446.48861389 -221.06075129 432.59209866 -221.15893555 418.45336914 C-220.9083598 406.93723006 -220.9083598 406.93723006 -226.22851562 397.20361328 C-227.625 395.77734375 -227.625 395.77734375 -227.625 393.77734375 C-228.4603125 393.37515625 -228.4603125 393.37515625 -229.3125 392.96484375 C-231.625 391.77734375 -231.625 391.77734375 -234.125 390.21484375 C-238.27199359 387.83032243 -241.99617815 387.57366618 -246.75 387.46484375 C-247.80445312 387.42746094 -248.85890625 387.39007812 -249.9453125 387.3515625 C-259.11834953 388.4129861 -266.91366326 393.47543303 -274.6875 398.15234375 C-276.80353081 399.40690093 -278.92075782 400.65944231 -281.0390625 401.91015625 C-282.66376465 402.86970215 -282.66376465 402.86970215 -284.32128906 403.84863281 C-289.69256987 406.98439385 -295.12631748 410.00594974 -300.5625 413.02734375 C-308.06425691 417.20490036 -315.52198947 421.43570796 -322.90429688 425.82055664 C-329.58112268 429.77640156 -336.32058809 433.62144171 -343.0625 437.46484375 C-352.26424567 442.71128918 -361.45425382 447.97678855 -370.625 453.27734375 C-379.57048565 458.44575595 -388.52863462 463.59150727 -397.5 468.71484375 C-398.07971558 469.04595154 -398.65943115 469.37705933 -399.25671387 469.71820068 C-405.16516638 473.09255439 -411.07513089 476.46424837 -416.98667908 479.83317566 C-419.94990498 481.52210586 -422.91258312 483.21199497 -425.875 484.90234375 C-426.45776703 485.2348111 -427.04053406 485.56727844 -427.64096069 485.90982056 C-435.72709693 490.52503618 -443.78055079 495.19345815 -451.8125 499.90234375 C-459.86515406 504.622635 -467.97003243 509.23619326 -476.125 513.77734375 C-484.6419044 518.52551127 -493.12636437 523.32440647 -501.5625 528.21484375 C-502.52671875 528.76978516 -503.4909375 529.32472656 -504.484375 529.89648438 C-519.2769185 538.2445284 -519.2769185 538.2445284 -528.9375 551.71484375 C-530.58499891 559.05370251 -530.07905794 567.16096902 -526.5078125 573.87890625 C-520.01217193 583.38382663 -508.851829 588.49644255 -499 593.83984375 C-496.58762781 595.16135071 -494.17824668 596.4882477 -491.76953125 597.81640625 C-491.16554001 598.14908005 -490.56154877 598.48175385 -489.93925476 598.82450867 C-484.1351632 602.03017933 -478.40415131 605.35590195 -472.6875 608.71484375 C-464.07408886 613.77253558 -455.42786366 618.76871598 -446.75 623.71484375 C-437.69402032 628.87774065 -428.65039828 634.06108128 -419.625 639.27734375 C-410.67950125 644.44573337 -401.72136548 649.59150721 -392.75 654.71484375 C-392.17028442 655.04595154 -391.59056885 655.37705933 -390.99328613 655.71820068 C-385.08483362 659.09255439 -379.17486911 662.46424837 -373.26332092 665.83317566 C-370.30009502 667.52210586 -367.33741688 669.21199497 -364.375 670.90234375 C-363.50084946 671.40104477 -363.50084946 671.40104477 -362.60903931 671.90982056 C-354.52290307 676.52503618 -346.46944921 681.19345815 -338.4375 685.90234375 C-330.38485784 690.62262802 -322.28023322 695.23668487 -314.125 699.77734375 C-305.78266447 704.42223444 -297.49156183 709.1432857 -289.25 713.96484375 C-288.26402832 714.54137695 -287.27805664 715.11791016 -286.26220703 715.71191406 C-282.44836707 717.94474631 -278.63640197 720.18064486 -274.83007812 722.42626953 C-272.22264875 723.96442825 -269.61155828 725.49620951 -267 727.02734375 C-266.2363916 727.48133545 -265.4727832 727.93532715 -264.68603516 728.40307617 C-255.84695942 733.57300747 -248.81666392 734.68337551 -238.625 732.77734375 C-230.74062429 729.67358687 -226.71914747 725.03454389 -222.51695251 717.89468384 C-221.42821972 715.3102216 -221.36677696 713.32701878 -221.35375977 710.52490234 C-221.34357315 709.47636078 -221.33338654 708.42781921 -221.32289124 707.34750366 C-221.32075119 706.21833527 -221.31861115 705.08916687 -221.31640625 703.92578125 C-221.29123416 701.5234352 -221.26583633 699.12109151 -221.24023438 696.71875 C-221.21156872 692.94027381 -221.18754736 689.1618388 -221.16870117 685.38330078 C-221.14692741 681.73057195 -221.10746537 678.078337 -221.06640625 674.42578125 C-221.06629044 673.30875824 -221.06617462 672.19173523 -221.0660553 671.04086304 C-220.93584792 660.62083224 -219.20438325 651.37295694 -211.625 643.77734375 C-205.78267539 638.38442873 -199.09636474 636.55202227 -191.26318359 636.51708984 C-180.2308 637.31324124 -170.96700891 644.10517682 -161.82421875 649.79736328 C-157.75653369 652.3148332 -153.626941 654.71519968 -149.48657227 657.1105957 C-146.51289824 658.83237557 -143.55134156 660.57378699 -140.58984375 662.31640625 C-136.50861204 664.70347813 -132.39726607 667.02329276 -128.25390625 669.30078125 C-126.69663818 670.16110962 -126.69663818 670.16110962 -125.10791016 671.03881836 C-123.14310756 672.12013709 -121.17305566 673.19199753 -119.19677734 674.25219727 C-110.58226582 679.00489694 -104.05477703 684.3155279 -100.625 693.77734375 C-100.11444357 696.96433591 -100.10871504 700.06694451 -100.1640625 703.2890625 C-100.16497894 704.17914505 -100.16589539 705.0692276 -100.1668396 705.98628235 C-100.17285066 707.86127077 -100.18852102 709.73625071 -100.21337891 711.61108398 C-100.24967686 714.43966235 -100.25439886 717.2669169 -100.25390625 720.09570312 C-100.2916663 729.82553175 -100.70171419 739.20566266 -102.625 748.77734375 C-102.83576172 749.92843628 -102.83576172 749.92843628 -103.05078125 751.1027832 C-107.25174591 773.24794191 -118.17023065 793.62115556 -132.625 810.77734375 C-133.26260254 811.54256348 -133.26260254 811.54256348 -133.91308594 812.32324219 C-155.1996275 837.58199015 -186.24325818 853.79035333 -218.625 858.77734375 C-219.79546875 858.96167969 -220.9659375 859.14601563 -222.171875 859.3359375 C-228.56228198 860.09848637 -235.00981268 860.06556443 -241.4375 860.08984375 C-242.12419769 860.09279449 -242.81089539 860.09574524 -243.5184021 860.0987854 C-254.986047 860.10997432 -265.57522827 858.92130788 -276.625 855.77734375 C-277.60855469 855.52726562 -278.59210938 855.2771875 -279.60546875 855.01953125 C-296.91393518 850.35027054 -313.40640748 840.0218085 -328.70239258 830.88647461 C-335.39817963 826.88838148 -342.16279348 823.01483725 -348.9375 819.15234375 C-350.1436488 818.46413364 -351.34978478 817.77590107 -352.5559082 817.08764648 C-356.84949945 814.63820585 -361.14427601 812.19084648 -365.43914795 809.74365234 C-369.58516755 807.38117106 -373.7305077 805.01750339 -377.875 802.65234375 C-378.45695129 802.32032959 -379.03890259 801.98831543 -379.63848877 801.64624023 C-387.72545246 797.03057154 -395.77973697 792.36170647 -403.8125 787.65234375 C-411.86514185 782.93205965 -419.96976422 778.3179971 -428.125 773.77734375 C-437.28070057 768.67965392 -446.35944664 763.46649821 -455.39892578 758.16577148 C-463.06986563 753.67183038 -470.77650302 749.24262296 -478.5 744.83984375 C-487.55589585 739.67679876 -496.59960062 734.49360685 -505.625 729.27734375 C-514.5704996 724.10895364 -523.52871994 718.96333074 -532.5 713.83984375 C-533.0790509 713.5090683 -533.65810181 713.17829285 -534.25469971 712.8374939 C-540.18009302 709.45289391 -546.10725954 706.0714345 -552.03782654 702.69590759 C-558.47956499 699.02924436 -564.91541032 695.35259575 -571.34326172 691.66162109 C-573.48696547 690.43076962 -575.63177579 689.20184283 -577.77783203 687.97509766 C-588.97867438 681.55841712 -599.76305307 675.14837221 -609.625 666.77734375 C-610.58535156 665.9678125 -611.54570312 665.15828125 -612.53515625 664.32421875 C-618.9818894 658.68443569 -624.45068965 652.59397823 -629.625 645.77734375 C-630.20636719 645.02324219 -630.78773437 644.26914063 -631.38671875 643.4921875 C-654.83288207 611.62945273 -661.82879954 573.22772962 -656.10107422 534.45166016 C-650.39078539 500.57228462 -630.23579938 469.00010534 -602.70166016 448.61279297 C-595.16118729 443.36926049 -587.45967853 438.63870232 -579.4375 434.15234375 C-578.21508417 433.46231547 -576.99308822 432.7715429 -575.77148438 432.08007812 C-573.89462639 431.01779579 -572.01755575 429.95591684 -570.13919067 428.89630127 C-563.94265257 425.40007036 -557.78244606 421.84190746 -551.625 418.27734375 C-542.05167781 412.74421271 -532.45830283 407.24703585 -522.85449219 401.76708984 C-514.43132672 396.96016466 -506.02215036 392.12961225 -497.625 387.27734375 C-488.67945532 382.10903323 -479.72136584 376.96318049 -470.75 371.83984375 C-470.17028442 371.50873596 -469.59056885 371.17762817 -468.99328613 370.83648682 C-463.08483362 367.46213311 -457.17486911 364.09043913 -451.26332092 360.72151184 C-448.30009502 359.03258164 -445.33741688 357.34269253 -442.375 355.65234375 C-441.79223297 355.3198764 -441.20946594 354.98740906 -440.60903931 354.64486694 C-432.52290307 350.02965132 -424.46944921 345.36122935 -416.4375 340.65234375 C-407.34704419 335.32371561 -398.17924471 330.14821215 -388.97314453 325.02246094 C-380.87555282 320.50351888 -372.8573565 315.85973092 -364.85766602 311.17016602 C-353.62761757 304.59270991 -342.32583021 298.14267993 -331.01416016 291.70703125 C-327.75070602 289.84891704 -324.49040887 287.98536409 -321.23046875 286.12109375 C-315.71402502 282.97251355 -310.17956189 279.85815888 -304.625 276.77734375 C-303.9537207 276.40254883 -303.28244141 276.02775391 -302.59082031 275.64160156 C-281.63594491 264.06450737 -257.46808275 259.53750345 -233.625 260.77734375 C-232.51382813 260.79667969 -231.40265625 260.81601562 -230.2578125 260.8359375 C-195.66209516 262.06352747 -164.10346309 279.21774189 -139.625 302.77734375 C-138.99335938 303.34582031 -138.36171875 303.91429687 -137.7109375 304.5 C-122.1667014 318.90236094 -110.92331806 340.3491525 -105.51953125 360.515625 C-104.68030363 363.73337498 -104.68030363 363.73337498 -103.609375 366.6328125 C-102.35174997 370.65022579 -101.66183881 374.6154657 -101.0625 378.77734375 C-100.93029053 379.6914502 -100.79808105 380.60555664 -100.66186523 381.54736328 C-99.81892075 388.16694111 -99.4798851 394.73043125 -99.3515625 401.39453125 C-99.33503128 402.23598694 -99.31850006 403.07744263 -99.3014679 403.94439697 C-99.22647234 408.18864572 -99.18438727 412.43088893 -99.17944336 416.67578125 C-99.16282203 418.26953361 -99.1459853 419.86328373 -99.12890625 421.45703125 C-99.13721466 422.17720428 -99.14552307 422.89737732 -99.15408325 423.63937378 C-99.05730585 430.20997404 -96.79621723 435.33035475 -92.44140625 440.23828125 C-91.69761719 440.86992188 -90.95382812 441.5015625 -90.1875 442.15234375 C-89.07568359 443.12300781 -89.07568359 443.12300781 -87.94140625 444.11328125 C-81.60521775 448.6650794 -74.37722367 448.90710454 -66.81445312 448.17431641 C-60.63976089 447.05477475 -55.32895697 443.47992772 -50.04931641 440.25341797 C-47.45332836 438.67281941 -44.8309146 437.14536117 -42.19921875 435.625 C-38.1641764 433.29107162 -34.13928021 430.94095387 -30.12109375 428.578125 C-23.40131524 424.6353509 -16.64285013 420.76184589 -9.875 416.90234375 C-9.29273651 416.57009796 -8.71047302 416.23785217 -8.11056519 415.89553833 C-3.35264205 413.18062546 1.40687108 410.46850579 6.16650391 407.7565918 C10.32008979 405.3898294 14.47296261 403.02182167 18.625 400.65234375 C19.20758575 400.31996704 19.79017151 399.98759033 20.39041138 399.6451416 C28.47673418 395.02983935 36.53037387 390.36133308 44.5625 385.65234375 C53.65295581 380.32371561 62.82075529 375.14821215 72.02685547 370.02246094 C80.12674336 365.50223748 88.14758416 360.8577371 96.14892578 356.16577148 C103.81986563 351.67183038 111.52650302 347.24262296 119.25 342.83984375 C129.37027384 337.0699641 139.47188552 331.26889372 149.55688477 325.4375 C155.28460282 322.12836511 161.02043355 318.8343025 166.76953125 315.5625 C167.39028534 315.20896454 168.01103943 314.85542908 168.65060425 314.49118042 C171.63201869 312.79337177 174.61463195 311.09779416 177.59960938 309.40625 C183.26570612 306.18191516 188.89853772 302.90803285 194.47265625 299.52734375 C195.5181665 298.89441406 196.56367676 298.26148438 197.64086914 297.609375 C203.2758387 293.83360827 207.86710835 288.53813665 209.375 281.77734375 C210.38171438 273.24264293 209.76954703 265.72282306 204.375 258.77734375 C198.36417916 252.53452294 191.14306238 248.50351746 183.625 244.33984375 C182.3863165 243.64431583 181.14820937 242.94776056 179.91064453 242.25024414 C177.34466685 240.80508304 174.77629663 239.36432027 172.20605469 237.92675781 C166.78159971 234.88872024 161.38600291 231.80039298 155.99060059 228.71115112 C154.2407127 227.70952776 152.49008449 226.70920985 150.73925781 225.70922852 C141.86549067 220.63961981 133.01227744 215.53482785 124.16357422 210.42163086 C116.24737125 205.85007457 108.31476686 201.30778436 100.375 196.77734375 C90.28766526 191.02149831 80.21985047 185.23270138 70.1640625 179.421875 C62.24766209 174.85029752 54.3149247 170.30787442 46.375 165.77734375 C37.36136803 160.63415441 28.36050083 155.46958883 19.375 150.27734375 C10.42945619 145.10903374 1.47145438 139.96302459 -7.5 134.83984375 C-8.07572754 134.51106232 -8.65145508 134.18228088 -9.24462891 133.84353638 C-13.37097832 131.48736602 -17.4979512 129.13228878 -21.625 126.77734375 C-26.02283483 124.26777992 -30.42039165 121.75773053 -34.81744385 119.24679565 C-36.55755917 118.2533464 -38.29805899 117.26057072 -40.03857422 116.26782227 C-41.11896973 115.65092529 -42.19936523 115.03402832 -43.3125 114.3984375 C-44.35921875 113.80144043 -45.4059375 113.20444336 -46.484375 112.58935547 C-48.62917339 111.35189483 -50.76426621 110.09749754 -52.890625 108.82861328 C-53.93734375 108.2045459 -54.9840625 107.58047852 -56.0625 106.9375 C-56.98933594 106.37812744 -57.91617188 105.81875488 -58.87109375 105.24243164 C-65.81693024 101.547222 -72.69259446 100.38853871 -80.31640625 102.53515625 C-88.61623153 105.67696791 -93.59599367 109.84330052 -97.625 117.77734375 C-98.57801702 120.87630748 -98.75433321 123.68750397 -98.7668457 126.92211914 C-98.77388016 127.94741226 -98.78091461 128.97270538 -98.78816223 130.02906799 C-98.79232651 131.13322556 -98.79649078 132.23738312 -98.80078125 133.375 C-98.82399108 135.72722238 -98.84810887 138.07943594 -98.87304688 140.43164062 C-98.90805355 144.12888392 -98.93744882 147.82580505 -98.95092773 151.52319336 C-98.96650577 155.09919122 -99.00678991 158.6742529 -99.05078125 162.25 C-99.04887283 163.33998795 -99.04696442 164.42997589 -99.04499817 165.55299377 C-99.19337726 174.97671972 -101.09850214 184.3096052 -107.89453125 191.2734375 C-114.74927993 197.23072473 -121.28808435 199.01508248 -130.42578125 198.421875 C-137.06205619 197.62964222 -142.43867806 194.57112495 -148.109375 191.25 C-151.01360853 189.54985087 -153.94303651 187.89795356 -156.875 186.24609375 C-161.63907544 183.55242865 -166.38723162 180.83336299 -171.125 178.09375 C-176.18710544 175.16692827 -181.27165308 172.28393666 -186.375 169.4296875 C-188.26614302 168.36707594 -190.15679379 167.30359461 -192.04724121 166.23974609 C-193.24799231 165.56643372 -194.45050258 164.89624717 -195.65490723 164.22949219 C-214.34581174 153.87477059 -214.34581174 153.87477059 -218.74902344 144.07568359 C-220.85864226 136.13227492 -220.35881595 127.74790663 -220.25 119.58984375 C-220.24086075 118.11327301 -220.24086075 118.11327301 -220.23153687 116.60687256 C-220.12348062 101.77974219 -219.19770656 87.97902147 -214.625 73.77734375 C-214.2481038 72.48585032 -213.8717644 71.19419421 -213.49609375 69.90234375 C-207.30685796 50.57985152 -195.57546135 33.31297546 -181.625 18.77734375 C-180.79484375 17.88402344 -179.9646875 16.99070312 -179.109375 16.0703125 C-130.7697823 -34.46010969 -56.84888638 -34.0356538 0 0 Z " fill="#000000" transform="translate(5124.625,684.22265625)"/>
<path d="M0 0 C0.86641113 0.01546875 1.73282227 0.0309375 2.62548828 0.046875 C27.83063127 0.55024378 54.16856338 6.24884485 77 17 C78.43318074 17.64154844 79.86681596 18.28208207 81.30078125 18.921875 C113.67271242 33.57552032 143.06837305 55.95244866 165 84 C165.77730469 84.94875 166.55460937 85.8975 167.35546875 86.875 C188.96698098 113.81208361 203.51159186 146.38172595 211.4609375 179.78222656 C212.13028317 182.53600195 212.881337 185.26548919 213.625 188 C219.29860679 210.92008196 219.3665755 234.53916788 219 258 C218.98114746 259.2684375 218.98114746 259.2684375 218.96191406 260.5625 C218.34346462 291.25778651 211.24094268 323.26106311 198 351 C197.24913506 352.70795334 196.49916049 354.41629835 195.75 356.125 C184.56382124 380.54065333 169.61903165 402.63272689 151 422 C150.43120117 422.59603027 149.86240234 423.19206055 149.27636719 423.80615234 C128.86273355 445.09277354 104.22022495 462.4618748 77 474 C75.64261719 474.61101562 75.64261719 474.61101562 74.2578125 475.234375 C65.72256727 478.98155583 56.97212024 481.55031298 48 484 C47.22624023 484.21688477 46.45248047 484.43376953 45.65527344 484.65722656 C6.56895302 495.53857612 -36.35001253 495.8540821 -75 483 C-76.70710126 482.5370988 -78.41528298 482.07814451 -80.125 481.625 C-109.59929339 472.64377592 -133.68025873 452.31974127 -155 431 C-155.33 512.51 -155.66 594.02 -156 678 C-195.93 678 -235.86 678 -277 678 C-277 457.23 -277 236.46 -277 9 C-238.39 9 -199.78 9 -160 9 C-159.67 28.47 -159.34 47.94 -159 68 C-155.535 64.04 -155.535 64.04 -152 60 C-137.36933011 44.40657837 -121.76889866 32.22484778 -103 22 C-102.3296875 21.63390625 -101.659375 21.2678125 -100.96875 20.890625 C-69.47254336 3.91220111 -35.39235546 -0.87917666 0 0 Z " fill="#000000" transform="translate(3151,856)"/>
<path d="M0 0 C1.47958988 0.35653179 2.9601408 0.70908868 4.44140625 1.05859375 C14.47292576 3.47715188 23.75659301 6.59583654 33.05712891 11.06738281 C35.00160404 12.00076997 36.958543 12.90318597 38.91796875 13.8046875 C53.85560645 20.82482329 67.60019053 30.12297415 80 41 C80.85980469 41.75023437 81.71960937 42.50046875 82.60546875 43.2734375 C96.24152281 55.36228422 96.24152281 55.36228422 100 61 C100.33 42.19 100.66 23.38 101 4 C139.94 4 178.88 4 219 4 C219 160.75 219 317.5 219 479 C180.06 479 141.12 479 101 479 C100.67 459.53 100.34 440.06 100 420 C96.535 423.96 96.535 423.96 93 428 C80.37565538 441.65112464 66.06378999 452.89287548 49.83398438 461.97363281 C48.60686327 462.66037631 47.38418904 463.35512421 46.16601562 464.05761719 C37.13164556 469.26606114 28.00850879 473.12300371 18.08789062 476.32080078 C16.09588021 476.96880978 14.11835181 477.64966781 12.140625 478.33984375 C1.01836889 482.12829116 -10.39817297 484.24145535 -22 486 C-23.01900391 486.15903809 -23.01900391 486.15903809 -24.05859375 486.32128906 C-32.02358153 487.38966964 -40.10306623 487.24298836 -48.125 487.25 C-49.32319366 487.25151062 -49.32319366 487.25151062 -50.54559326 487.25305176 C-63.89725 487.24169746 -76.84693196 486.43457594 -90 484 C-90.7626416 483.86609863 -91.5252832 483.73219727 -92.31103516 483.59423828 C-136.55111625 475.63738916 -175.64033943 452.4506734 -208 422 C-208.65871094 421.38382813 -209.31742188 420.76765625 -209.99609375 420.1328125 C-215.14480188 415.16246608 -219.58265158 409.61736967 -224 404 C-224.46067871 403.4210498 -224.92135742 402.84209961 -225.39599609 402.24560547 C-233.71262839 391.74199659 -240.56573289 380.73752979 -247 369 C-247.41411133 368.25540527 -247.82822266 367.51081055 -248.25488281 366.74365234 C-253.62081131 357.07768921 -258.21316774 347.39435482 -262 337 C-262.42925781 335.8346875 -262.85851562 334.669375 -263.30078125 333.46875 C-267.03172815 322.84190434 -269.53172608 311.97528089 -272 301 C-272.30291463 299.69129719 -272.60625062 298.38269179 -272.91015625 297.07421875 C-276.43362671 281.43992522 -277.54258135 265.97078697 -278 250 C-278.03504639 248.89833496 -278.03504639 248.89833496 -278.07080078 247.77441406 C-278.45782592 234.13421723 -277.25151403 220.5722227 -276 207 C-275.92523437 206.18515137 -275.85046875 205.37030273 -275.7734375 204.53076172 C-274.87040456 195.15134322 -273.02406937 186.18995054 -270.56201172 177.12011719 C-269.97954223 174.92282569 -269.44116779 172.71807105 -268.91015625 170.5078125 C-264.49911169 152.44299341 -257.85780738 135.34549086 -249 119 C-248.68063477 118.40670898 -248.36126953 117.81341797 -248.03222656 117.20214844 C-237.43218769 97.67009712 -224.36373059 80.02813597 -209 64 C-208.49742676 63.47019531 -207.99485352 62.94039062 -207.47705078 62.39453125 C-199.56345512 54.0888316 -191.20087715 46.83963557 -182 40 C-181.44231934 39.5762207 -180.88463867 39.15244141 -180.31005859 38.71582031 C-170.74715664 31.45504678 -160.6092283 25.59594307 -150 20 C-149.37061523 19.66339355 -148.74123047 19.32678711 -148.09277344 18.97998047 C-135.01331249 12.01164942 -121.24160351 7.02411755 -107 3 C-106.33709961 2.80019531 -105.67419922 2.60039063 -104.99121094 2.39453125 C-72.58427424 -7.29671398 -32.73958438 -8.99268013 0 0 Z " fill="#000000" transform="translate(1144,861)"/>
<path d="M0 0 C50.35928746 -1.78402857 98.911982 14.48280969 136.27441406 48.67724609 C141.99008314 54.00778586 147.42993624 59.58276827 152.96191406 65.11474609 C153.29191406 46.63474609 153.62191406 28.15474609 153.96191406 9.11474609 C192.90191406 9.11474609 231.84191406 9.11474609 271.96191406 9.11474609 C271.96191406 165.86474609 271.96191406 322.61474609 271.96191406 484.11474609 C233.02191406 484.11474609 194.08191406 484.11474609 153.96191406 484.11474609 C153.63191406 464.97474609 153.30191406 445.83474609 152.96191406 426.11474609 C149.00191406 430.40474609 145.04191406 434.69474609 140.96191406 439.11474609 C138.32287767 441.58352207 135.76316724 443.86199004 132.96191406 446.11474609 C132.47529297 446.51371094 131.98867187 446.91267578 131.48730469 447.32373047 C98.0077491 474.72336676 57.51139199 491.37047368 13.96191406 492.11474609 C13.19814453 492.12989258 12.434375 492.14503906 11.64746094 492.16064453 C6.08281251 492.25515596 0.52611052 492.22234421 -5.03808594 492.11474609 C-5.8020166 492.10217773 -6.56594727 492.08960938 -7.35302734 492.07666016 C-27.02831506 491.66701958 -46.29923849 488.05329468 -65.03808594 482.11474609 C-66.10833008 481.77854248 -66.10833008 481.77854248 -67.20019531 481.43554688 C-77.30446578 478.20792035 -86.71587512 474.10875648 -96.08398438 469.14697266 C-98.0322623 468.11782235 -99.99070008 467.11071632 -101.95214844 466.10693359 C-118.67592327 457.47421582 -133.60501627 446.53781726 -147.28417969 433.65771484 C-149.22197326 431.86834802 -151.15035778 430.1758316 -153.18652344 428.50927734 C-155.43898548 426.61782634 -157.33564419 424.84416799 -159.22558594 422.61474609 C-159.80953125 421.92767578 -160.39347656 421.24060547 -160.99511719 420.53271484 C-161.66929687 419.73478516 -162.34347656 418.93685547 -163.03808594 418.11474609 C-163.88757812 417.14150391 -164.73707031 416.16826172 -165.61230469 415.16552734 C-178.04508485 400.85564547 -187.89363869 385.05491476 -196.78808594 368.36474609 C-197.14064453 367.70442383 -197.49320313 367.04410156 -197.85644531 366.36376953 C-217.93536991 328.10833251 -224.20968613 286.43398166 -224.41308594 243.73974609 C-224.42121307 242.73252502 -224.42934021 241.72530396 -224.43771362 240.68756104 C-224.55274558 221.65510743 -222.6566411 203.20044634 -218.16308594 184.67724609 C-217.90043945 183.57582275 -217.63779297 182.47439941 -217.3671875 181.33959961 C-215.35645238 173.07669688 -213.05685396 165.07083651 -210.03808594 157.11474609 C-209.71388672 156.23061035 -209.3896875 155.34647461 -209.05566406 154.43554688 C-194.24498366 114.24738603 -168.95818955 76.67701005 -135.03808594 50.11474609 C-134.04164063 49.31294922 -133.04519531 48.51115234 -132.01855469 47.68505859 C-96.54561035 19.40631514 -51.20629215 1.3943362 -5.70898438 0.18652344 C-3.80566134 0.13537381 -1.9026536 0.07186172 0 0 Z " fill="#000000" transform="translate(3637.0380859375,855.88525390625)"/>
<path d="M0 0 C11.446875 0.04125 22.89375 0.0825 34.6875 0.125 C34.6875 30.485 34.6875 60.845 34.6875 92.125 C19.3425 92.62 19.3425 92.62 3.6875 93.125 C-6.91045604 93.96000049 -6.91045604 93.96000049 -17 96.3125 C-17.72550049 96.53244629 -18.45100098 96.75239258 -19.19848633 96.97900391 C-28.84488008 100.06714836 -36.38841734 105.29994534 -41.49609375 114.18359375 C-52.35007655 136.48793204 -47.0476524 177.70444892 -47.3125 194.125 C3.1775 194.125 53.6675 194.125 105.6875 194.125 C105.6875 156.175 105.6875 118.225 105.6875 79.125 C145.6175 79.125 185.5475 79.125 226.6875 79.125 C226.6875 117.075 226.6875 155.025 226.6875 194.125 C251.1075 194.125 275.5275 194.125 300.6875 194.125 C300.6875 228.775 300.6875 263.425 300.6875 299.125 C276.2675 299.125 251.8475 299.125 226.6875 299.125 C226.74898641 327.7881974 226.82112314 356.45129213 226.91648628 385.11439541 C226.92775329 388.5048928 226.93889193 391.8953906 226.94995117 395.28588867 C226.9532567 396.29829102 226.9532567 396.29829102 226.956629 397.33114593 C226.99191923 408.23326394 227.01682993 419.13538188 227.03784702 430.03753567 C227.05967523 441.23946309 227.09301102 452.44132426 227.13620156 463.64319175 C227.16007653 469.92866499 227.17884282 476.21405717 227.18511391 482.49957466 C227.19119065 488.42489686 227.2112838 494.35001184 227.24177551 500.27525711 C227.25051434 502.44105652 227.25428702 504.60688305 227.25250816 506.77269936 C226.9808957 531.57753112 226.9808957 531.57753112 238.31640625 552.92578125 C254.4013467 567.96576038 282.50135806 564.43978064 301.6875 565.125 C301.6875 599.775 301.6875 634.425 301.6875 670.125 C282.320625 670.186875 282.320625 670.186875 262.5625 670.25 C258.53401855 670.26820801 254.50553711 670.28641602 250.35498047 670.30517578 C203.71177179 670.4298283 203.71177179 670.4298283 182.6875 664.125 C181.81996094 663.86589844 180.95242188 663.60679687 180.05859375 663.33984375 C177.91006197 662.65605016 175.80010973 661.91220819 173.6875 661.125 C172.92695312 660.85171875 172.16640625 660.5784375 171.3828125 660.296875 C159.44918541 655.79793571 149.17098503 649.64793912 139.6875 641.125 C139.03007813 640.53847656 138.37265625 639.95195313 137.6953125 639.34765625 C110.5316871 613.69312115 106.792615 572.96880669 105.5754714 537.89690423 C105.41472179 530.54641523 105.43541877 523.19674441 105.46044922 515.8449707 C105.46101553 513.45678207 105.4606925 511.06859309 105.45956421 508.68040466 C105.45899827 502.29374577 105.4706273 495.90716442 105.48471212 489.52052331 C105.49606233 483.4930815 105.49796917 477.46564194 105.50001587 471.43819167 C105.50436049 459.52364017 105.51758028 447.60911652 105.53662109 435.69458008 C105.55506468 424.14152155 105.56915629 412.5884707 105.57763672 401.03540039 C105.57817271 400.31240059 105.57870871 399.58940079 105.57926095 398.8444919 C105.58388852 392.55245379 105.58819323 386.26041547 105.59246635 379.96837711 C105.61118353 353.02055847 105.65105394 326.07281401 105.6875 299.125 C55.1975 299.125 4.7075 299.125 -47.3125 299.125 C-47.3125 421.555 -47.3125 543.985 -47.3125 670.125 C-87.2425 670.125 -127.1725 670.125 -168.3125 670.125 C-168.3125 547.365 -168.3125 424.605 -168.3125 298.125 C-190.0925 298.125 -211.8725 298.125 -234.3125 298.125 C-234.3125 264.135 -234.3125 230.145 -234.3125 195.125 C-212.5325 195.125 -190.7525 195.125 -168.3125 195.125 C-168.32410156 190.01515625 -168.33570313 184.9053125 -168.34765625 179.640625 C-168.35277938 176.35937369 -168.35759428 173.07812747 -168.36132812 169.796875 C-168.36725367 164.61457262 -168.37418117 159.43228828 -168.38793945 154.25 C-168.51699677 104.13729224 -168.51699677 104.13729224 -165.25 88.625 C-165.03520996 87.58384033 -164.82041992 86.54268066 -164.59912109 85.4699707 C-159.06620372 60.33794927 -146.52403563 36.14883093 -124.40673828 21.89697266 C-86.53236231 -1.26854808 -42.92531609 -0.22034482 0 0 Z " fill="#000000" transform="translate(1652.3125,669.875)"/>
<path d="M0 0 C0.98685791 0.34683838 0.98685791 0.34683838 1.99365234 0.70068359 C39.06286053 13.73761204 75.05824071 40.87571293 99 72 C99.41572266 72.53399414 99.83144531 73.06798828 100.25976562 73.61816406 C111.61817941 88.28313831 121.11939494 104.21644111 129 121 C129.43570313 121.89203125 129.87140625 122.7840625 130.3203125 123.703125 C137.58679237 138.96730284 141.63849841 154.87446363 145.37329102 171.29394531 C145.92110422 173.65933743 146.50191986 176.01164698 147.10546875 178.36328125 C151.13450009 194.74331696 151.18669997 211.59790998 151.18530273 228.3605957 C151.18750895 231.32452355 151.20579042 234.28808976 151.22460938 237.25195312 C151.22754097 239.16406125 151.22952733 241.07617111 151.23046875 242.98828125 C151.23765427 243.86035721 151.24483978 244.73243317 151.25224304 245.63093567 C151.24916641 246.46598129 151.24608978 247.30102692 151.24291992 248.16137695 C151.24434494 248.88081985 151.24576996 249.60026276 151.24723816 250.34150696 C150.88075595 254.28220284 149.85854578 258.13654398 149 262 C28.88 262 -91.24 262 -215 262 C-211.27752454 280.61237732 -207.42728629 297.51533584 -198 314 C-197.18595703 315.4540625 -197.18595703 315.4540625 -196.35546875 316.9375 C-180.33245365 343.75948148 -154.22388709 360.32421374 -124.375 367.96484375 C-112.21760726 370.91712727 -100.42759008 371.33993193 -88 371 C-87.28408691 370.98598145 -86.56817383 370.97196289 -85.83056641 370.95751953 C-53.28537022 370.23163219 -24.56031593 357.1768086 -1 335 C-0.40832031 334.47277344 0.18335937 333.94554687 0.79296875 333.40234375 C7.98917593 326.71893043 13.57261897 318.14107155 19 310 C21.16703224 309.63085651 21.16703224 309.63085651 23.9100647 309.63923645 C24.94775497 309.63511246 25.98544525 309.63098846 27.05458069 309.6267395 C28.19753098 309.63752533 29.34048126 309.64831116 30.51806641 309.65942383 C31.71804764 309.65898575 32.91802887 309.65854767 34.15437317 309.65809631 C37.44982394 309.65983139 40.74471466 309.67490238 44.04006624 309.69581819 C47.48204692 309.7145401 50.92403461 309.71633187 54.36605835 309.71989441 C60.88614358 309.72922812 67.40607837 309.75385969 73.92609727 309.78394288 C81.34798846 309.81744577 88.76988674 309.83396252 96.19183469 309.84902918 C111.46131034 309.88040821 126.73063579 309.9331943 142 310 C141.69527759 311.59173422 141.38675919 313.18274201 141.07666016 314.7734375 C140.9052652 315.65950684 140.73387024 316.54557617 140.55728149 317.45849609 C139.37346368 322.85734325 137.04216405 327.86894118 134.87841797 332.93310547 C133.99498438 335.01180162 133.13987052 337.10076257 132.28515625 339.19140625 C122.12471494 363.53304235 107.30307827 385.09455782 89 404 C88.50032715 404.5254541 88.0006543 405.0509082 87.48583984 405.59228516 C64.96401924 429.23633912 37.10410811 445.8432563 7 458 C6.27780273 458.29535645 5.55560547 458.59071289 4.81152344 458.89501953 C-26.03872211 471.42285044 -59.98921737 476.4228828 -93.14697266 476.26074219 C-95.76357863 476.24994396 -98.37950717 476.26076638 -100.99609375 476.2734375 C-111.51187002 476.28170035 -121.5942753 475.49893681 -132 474 C-134.6649564 473.69043682 -137.33210327 473.40878232 -140 473.125 C-147.45374276 472.24035694 -154.62410328 470.53335508 -161.85791016 468.57080078 C-164.12195404 467.96750302 -166.39311891 467.40095154 -168.66796875 466.83984375 C-184.36072471 462.92859871 -198.72277637 457.53659563 -213.04296875 450.0234375 C-214.95886666 449.02151085 -216.88430663 448.04051148 -218.8125 447.0625 C-238.19457518 437.12239369 -255.28627149 424.01436924 -271 409 C-271.87527344 408.16597656 -272.75054688 407.33195312 -273.65234375 406.47265625 C-305.64230582 375.27135273 -325.23207368 333.06931955 -335 290 C-335.15597656 289.32291992 -335.31195312 288.64583984 -335.47265625 287.94824219 C-346.62297536 238.44986613 -343.18838881 177.1355398 -321.34375 130.86328125 C-320.24689311 128.52608329 -319.20334043 126.17866501 -318.171875 123.8125 C-312.32236816 110.61961648 -305.49315459 97.6823512 -297 86 C-296.31679687 85.04480469 -295.63359375 84.08960938 -294.9296875 83.10546875 C-281.53677048 64.79221484 -266.00850331 47.7139006 -247.68701172 34.24267578 C-246.02898451 33.02135039 -244.39123502 31.77622084 -242.75390625 30.52734375 C-228.10994299 19.53457965 -211.92350396 10.91628314 -195.05761719 3.87524414 C-192.86413094 2.94220568 -190.69961392 1.95473884 -188.53125 0.96484375 C-184.18580718 -0.97112466 -179.79024434 -2.5259012 -175.25 -3.9375 C-174.43781006 -4.19055908 -173.62562012 -4.44361816 -172.78881836 -4.7043457 C-156.80414349 -9.57800122 -140.59395312 -13.02363385 -124 -15 C-122.83283447 -15.14356934 -122.83283447 -15.14356934 -121.64208984 -15.29003906 C-80.55636196 -19.70990337 -38.6897451 -14.19551799 0 0 Z " fill="#000000" transform="translate(2337,872)"/>
<path d="M0 0 C45.87 0 91.74 0 139 0 C142.67660784 8.40367507 146.32796282 16.75635488 149.828125 25.22265625 C151.3523034 28.83495905 152.98213885 32.39385918 154.6171875 35.95703125 C158.42913589 44.34547135 162.10792114 52.79630276 165.625 61.3125 C167.52524121 65.90886268 169.5430346 70.43694332 171.6171875 74.95703125 C175.42913589 83.34547135 179.10792114 91.79630276 182.625 100.3125 C184.52747454 104.91426472 186.54752323 109.44765217 188.625 113.97265625 C191.17521244 119.58747056 193.62062949 125.24853513 196.08398438 130.90185547 C196.99538386 132.98942668 197.91102662 135.07508301 198.828125 137.16015625 C201.47872736 143.19063481 204.11081014 149.22344642 206.625 155.3125 C208.52524121 159.90886268 210.5430346 164.43694332 212.6171875 168.95703125 C216.42913589 177.34547135 220.10792114 185.79630276 223.625 194.3125 C225.52524121 198.90886268 227.5430346 203.43694332 229.6171875 207.95703125 C233.42913589 216.34547135 237.10792114 224.79630276 240.625 233.3125 C242.52524121 237.90886268 244.5430346 242.43694332 246.6171875 246.95703125 C251.27967266 257.21713277 255.71613631 267.57658972 260 278 C262.71296542 274.6946595 264.49286728 271.12175422 266.265625 267.26171875 C266.5756395 266.597202 266.88565399 265.93268524 267.20506287 265.24803162 C267.87402098 263.81332726 268.54098071 262.37768977 269.20614624 260.94122314 C270.99339283 257.08248434 272.79582393 253.23085066 274.59765625 249.37890625 C275.14961418 248.19781281 275.14961418 248.19781281 275.71272278 246.99285889 C279.29810129 239.33453958 282.98436934 231.72688423 286.6875 224.125 C291.35028184 214.54452789 295.91839474 204.92874532 300.375 195.25 C305.28041086 184.59759731 310.35349472 174.03742281 315.5 163.5 C321.259919 151.70607074 326.89690431 139.86897965 332.3918457 127.94897461 C337.34612008 117.21120973 342.46514828 106.55607334 347.60205078 95.90478516 C349.78952762 91.3594482 351.95838305 86.80530894 354.125 82.25 C354.53000732 81.39865479 354.93501465 80.54730957 355.35229492 79.67016602 C356.16238453 77.96701309 356.97236229 76.26380696 357.78222656 74.56054688 C359.85310739 70.20621687 361.92670977 65.85318315 364 61.5 C364.83334596 59.75000601 365.66667931 58.00000602 366.5 56.25 C368.16666667 52.75 369.83333333 49.25 371.5 45.75 C372.11935425 44.4491748 372.11935425 44.4491748 372.7512207 43.12207031 C373.58010557 41.38165517 374.40936659 39.64141912 375.23901367 37.90136719 C377.39361392 33.3811557 379.54052252 28.85750868 381.67578125 24.328125 C382.11728516 23.39419922 382.55878906 22.46027344 383.01367188 21.49804688 C383.84946827 19.72967766 384.68298736 17.96022938 385.51367188 16.18945312 C386.08891602 14.97418945 386.08891602 14.97418945 386.67578125 13.734375 C387.1694519 12.68588379 387.1694519 12.68588379 387.6730957 11.61621094 C389.66750326 7.6839071 391.85872355 3.85429761 394 0 C438.22 0 482.44 0 528 0 C526.4789464 4.56316081 524.89174259 8.51492635 522.8046875 12.8046875 C522.49617859 13.44102615 522.18766968 14.07736481 521.86981201 14.73298645 C520.8751165 16.7820848 519.8751285 18.82854873 518.875 20.875 C518.1864271 22.29129659 517.49811417 23.7077196 516.81005859 25.12426758 C513.17113394 32.60597321 509.48146475 40.05899048 505.71630859 47.47802734 C503.15243969 52.58201269 500.82200625 57.78233264 498.5 63 C494.97400479 70.91715142 491.24294735 78.68592344 487.31542969 86.41015625 C484.36227397 92.22438711 481.42689941 98.04751661 478.5 103.875 C478.16980865 104.53200897 477.83961731 105.18901794 477.49942017 105.86593628 C473.32908236 114.17678811 469.32210542 122.52728891 465.64453125 131.06982422 C463.36614399 136.31735978 460.75274593 141.31148047 457.99829102 146.32226562 C455.40844908 151.09026027 453.16617836 155.96421212 451 160.9375 C447.6783159 168.55045813 444.09460255 175.97503006 440.33154297 183.37792969 C437.373399 189.20309769 434.43230084 195.03678884 431.5 200.875 C431.16989929 201.5318277 430.83979858 202.1886554 430.49969482 202.86538696 C426.32726877 211.18040127 422.32355119 219.53684819 418.63793945 228.08081055 C416.68492517 232.5718385 414.5377126 236.89182065 412.1875 241.1875 C408.43440054 248.05012683 405.04843453 255.05822275 401.69995117 262.12597656 C398.80098962 268.24007882 395.87096434 274.33746318 392.90234375 280.41796875 C392.54434692 281.15145538 392.1863501 281.88494202 391.81750488 282.64065552 C391.08251384 284.14643049 390.34750801 285.65219825 389.61248779 287.15795898 C384.25649544 298.13264502 378.96633471 309.12064124 373.9375 320.25 C370.85268866 327.07627921 367.63944455 333.75183472 364.03662109 340.31835938 C360.68277732 346.47349153 357.69973846 352.79432442 354.69921875 359.12744141 C351.80055294 365.24108014 348.87072488 371.33795366 345.90234375 377.41796875 C345.54434692 378.15145538 345.1863501 378.88494202 344.81750488 379.64065552 C344.08251384 381.14643049 343.34750801 382.65219825 342.61248779 384.15795898 C337.25649544 395.13264502 331.96633471 406.12064124 326.9375 417.25 C323.85268866 424.07627921 320.63944455 430.75183472 317.03662109 437.31835938 C313.68277732 443.47349153 310.69973846 449.79432442 307.69921875 456.12744141 C304.80055294 462.24108014 301.87072488 468.33795366 298.90234375 474.41796875 C298.54434692 475.15145538 298.1863501 475.88494202 297.81750488 476.64065552 C297.08251384 478.14643049 296.34750801 479.65219825 295.61248779 481.15795898 C290.25649544 492.13264502 284.96633471 503.12064124 279.9375 514.25 C276.85268866 521.07627921 273.63944455 527.75183472 270.03662109 534.31835938 C266.68277732 540.47349153 263.69973846 546.79432442 260.69921875 553.12744141 C257.80055294 559.24108014 254.87072488 565.33795366 251.90234375 571.41796875 C251.54434692 572.15145538 251.1863501 572.88494202 250.81750488 573.64065552 C250.08251384 575.14643049 249.34750801 576.65219825 248.61248779 578.15795898 C243.25649544 589.13264502 237.96633471 600.12064124 232.9375 611.25 C229.58286176 618.67337042 226.0226094 625.87592947 222.10546875 633.015625 C217.89249921 640.83588533 214.23047533 648.95600195 210.45043945 656.99145508 C208.3485595 661.35123739 206.16451385 665.67097229 204 670 C159.45 670 114.9 670 69 670 C70.32027046 666.03918861 71.45820852 662.85041718 73.3203125 659.234375 C73.76914795 658.35338135 74.2179834 657.4723877 74.68041992 656.56469727 C75.15713135 655.63584717 75.63384277 654.70699707 76.125 653.75 C79.67242059 646.76244552 83.07671626 639.75530052 86.1875 632.5625 C88.84726669 626.42333248 91.77856814 620.54074066 95.00073242 614.6796875 C97.59075791 609.91095256 99.83352358 605.03647218 102 600.0625 C105.3216841 592.44954187 108.90539745 585.02496994 112.66845703 577.62207031 C115.6265999 571.79690448 118.56802278 565.96337187 121.5 560.125 C121.83010071 559.46783997 122.16020142 558.81067993 122.50030518 558.13360596 C126.6629747 549.83305231 130.67369002 541.49412527 134.37084961 532.97412109 C137.22997574 526.3989817 140.42060053 520.01143385 143.66845703 513.62207031 C146.626601 507.79690231 149.56769916 501.96321116 152.5 496.125 C152.99515106 495.13975845 152.99515106 495.13975845 153.50030518 494.13461304 C157.67273123 485.81959873 161.67644881 477.46315181 165.36206055 468.91918945 C167.58315378 463.81170413 170.09714332 458.93511743 172.77758789 454.05566406 C177.52305505 445.33652 181.65790709 436.303168 185.89013672 427.32739258 C186.61066042 425.81644835 187.36646751 424.32165016 188.16210938 422.84887695 C189.60015909 419.6756979 188.3420825 417.01153428 187.2734375 413.8515625 C184.98319427 408.17574233 182.46191507 402.62517732 179.84912109 397.09228516 C177.49274962 392.09290618 175.23082044 387.05652633 173 382 C170.55859971 376.47115294 168.07517821 370.96784415 165.5 365.5 C162.56629531 359.270901 159.76196785 352.98974328 156.98046875 346.69140625 C154.87438125 341.93441324 152.71658393 337.20644533 150.5 332.5 C147.56629531 326.270901 144.76196785 319.98974328 141.98046875 313.69140625 C139.87438125 308.93441324 137.71658393 304.20644533 135.5 299.5 C132.56629531 293.270901 129.76196785 286.98974328 126.98046875 280.69140625 C124.87438125 275.93441324 122.71658393 271.20644533 120.5 266.5 C117.56629531 260.270901 114.76196785 253.98974328 111.98046875 247.69140625 C109.87438125 242.93441324 107.71658393 238.20644533 105.5 233.5 C102.56629531 227.270901 99.76196785 220.98974328 96.98046875 214.69140625 C94.87438125 209.93441324 92.71658393 205.20644533 90.5 200.5 C87.56629531 194.270901 84.76196785 187.98974328 81.98046875 181.69140625 C79.87438125 176.93441324 77.71658393 172.20644533 75.5 167.5 C72.56629531 161.270901 69.76196785 154.98974328 66.98046875 148.69140625 C64.87438125 143.93441324 62.71658393 139.20644533 60.5 134.5 C57.56629531 128.270901 54.76196785 121.98974328 51.98046875 115.69140625 C49.87438125 110.93441324 47.71658393 106.20644533 45.5 101.5 C42.92481855 96.03214898 40.44167526 90.52872983 38 85 C34.99630991 78.19988888 31.90777452 71.44701541 28.73828125 64.72265625 C23.31229596 53.15190633 18.18866571 41.4417765 13.01391602 29.75732422 C11.98019409 27.42376893 10.94552447 25.09063779 9.91015625 22.7578125 C9.57787018 22.0089679 9.24558411 21.26012329 8.90322876 20.48858643 C6.341162 14.73051992 3.70697382 9.00943233 1.02905273 3.30419922 C0 1 0 1 0 0 Z " fill="#000000" transform="translate(3956,865)"/>
<path d="M0 0 C1 1 1 1 1.12304783 3.01274967 C1.12212604 3.90412349 1.12120424 4.7954973 1.12025452 5.71388245 C1.12231651 7.2431134 1.12231651 7.2431134 1.12442017 8.80323792 C1.12082489 9.931082 1.11722961 11.05892609 1.11352539 12.22094727 C1.11367142 13.40127533 1.11381744 14.58160339 1.1139679 15.79769897 C1.11338895 19.04342108 1.10835986 22.28910055 1.10139394 25.53481412 C1.09515962 28.92343032 1.09455654 32.31204728 1.09336853 35.70066833 C1.09025544 42.12155804 1.08204236 48.54243081 1.07201904 54.96331304 C1.0608572 62.27153825 1.05534727 69.57976424 1.05032361 76.88799584 C1.03985973 91.92534002 1.02226073 106.96266832 1 122 C-2.7384668 120.52294373 -6.36686281 118.90869874 -10 117.1875 C-16.56561526 114.14813653 -23.19978436 111.46635863 -30 109 C-31.18464844 108.56558594 -32.36929688 108.13117188 -33.58984375 107.68359375 C-56.67923159 99.56717725 -82.1211457 96.77292428 -104.83398438 107.58325195 C-122.28163003 116.50049287 -135.68616395 132.68040521 -141.75488281 151.31835938 C-143.38030312 156.83027181 -144.74123082 162.39461254 -146 168 C-146.17475558 168.7271047 -146.34951115 169.45420939 -146.52956235 170.20334756 C-148.05292489 176.99150582 -148.29043239 183.50058867 -148.2784729 190.43984985 C-148.2842653 191.6571256 -148.2900577 192.87440135 -148.29602563 194.12856424 C-148.31001539 197.48089823 -148.31525023 200.83303261 -148.31667423 204.18538117 C-148.32038749 207.81034842 -148.33555243 211.43527057 -148.34928894 215.06021118 C-148.37150541 221.3319005 -148.38655235 227.60357365 -148.39665604 233.87529373 C-148.41127454 242.94301419 -148.43682017 252.01067831 -148.46498732 261.07836561 C-148.51039782 275.79197488 -148.54703631 290.50559229 -148.578125 305.21923828 C-148.6083341 319.50766426 -148.64269519 333.79607037 -148.68261719 348.08447266 C-148.68507874 348.96599611 -148.68754028 349.84751957 -148.69007643 350.75575586 C-148.70245149 355.1783348 -148.71490793 359.6009135 -148.72740483 364.0234921 C-148.83088662 400.68230454 -148.91849609 437.34113082 -149 474 C-188.93 474 -228.86 474 -270 474 C-270 317.25 -270 160.5 -270 -1 C-231.39 -1 -192.78 -1 -153 -1 C-152.67 13.19 -152.34 27.38 -152 42 C-148.37 37.38 -144.74 32.76 -141 28 C-130.01617271 15.88548461 -116.69790039 7.00434294 -102 0 C-101.01386719 -0.47050781 -100.02773437 -0.94101562 -99.01171875 -1.42578125 C-69.81828725 -13.91515658 -28.42376694 -15.65715976 0 0 Z " fill="#000000" transform="translate(2816,866)"/>
<path d="M0 0 C1.64162109 0.433125 1.64162109 0.433125 3.31640625 0.875 C34.25226197 10.10220597 61.21433579 33.43922481 76.71337891 61.44897461 C95.05684813 95.81117326 98.17948581 137.04210172 88.125 174.5625 C81.42101684 195.98500257 70.36233979 213.69484513 55 230 C54.38898438 230.67546875 53.77796875 231.3509375 53.1484375 232.046875 C47.19419742 238.38117295 40.19733384 243.19565205 33 248 C32.06542969 248.63035156 31.13085938 249.26070312 30.16796875 249.91015625 C16.28870352 258.62689078 0.19134358 263.89790496 -16 266 C-17.04365723 266.13704346 -17.04365723 266.13704346 -18.10839844 266.27685547 C-39.48564464 268.89647869 -61.97189569 267.1564348 -82 259 C-82.66418945 258.7309082 -83.32837891 258.46181641 -84.01269531 258.18457031 C-116.96757813 244.54966087 -140.6872875 218.29983774 -155 186 C-164.77646191 161.27130222 -168.22156358 133.18898212 -163 107 C-162.75805908 105.76830078 -162.75805908 105.76830078 -162.51123047 104.51171875 C-155.36429429 68.79619854 -137.38028785 37.58780069 -106.75 16.875 C-75.19753367 -3.87514822 -36.4996645 -10.17665528 0 0 Z " fill="#B1FBE3" transform="translate(1151,971)"/>
<path d="M0 0 C1.18279541 0.00346436 2.36559082 0.00692871 3.58422852 0.01049805 C13.64076908 0.13382848 23.23836513 1.21895319 33.0625 3.3125 C34.1865625 3.54066406 35.310625 3.76882813 36.46875 4.00390625 C67.23466277 10.94209534 94.05452029 32.55725912 110.74755859 58.76220703 C113.50754325 63.23127309 116.00331431 67.81433796 118.375 72.5 C118.68832275 73.11641357 119.00164551 73.73282715 119.32446289 74.36791992 C123.99841851 83.894398 126.82398562 93.58591421 128.75 104 C129.07133911 105.71183472 129.07133911 105.71183472 129.39916992 107.45825195 C130.96515284 116.10759758 131.92857966 124.51202077 132.0625 133.3125 C132.10117188 134.5809375 132.13984375 135.849375 132.1796875 137.15625 C132.33120589 145.43925532 131.67097147 153.1939519 130.0625 161.3125 C129.9171582 162.0947998 129.77181641 162.87709961 129.62207031 163.68310547 C124.96040268 188.40110959 115.29177181 209.07268097 99.0625 228.3125 C98.55074219 228.94671875 98.03898437 229.5809375 97.51171875 230.234375 C83.75559599 246.9938561 63.53867168 258.90628175 43.0625 265.3125 C41.96035156 265.68117188 40.85820312 266.04984375 39.72265625 266.4296875 C27.70358251 270.34553316 16.18639256 271.70375324 3.5625 271.6875 C1.59434326 271.68508301 1.59434326 271.68508301 -0.41357422 271.68261719 C-11.31974323 271.54630678 -21.4408927 270.21526547 -31.9375 267.3125 C-33.03320312 267.02375 -34.12890625 266.735 -35.2578125 266.4375 C-68.19908787 256.59903909 -94.42123509 231.73406719 -110.88452148 202.28295898 C-114.3397113 195.85417415 -116.71365608 189.26511241 -118.9375 182.3125 C-119.29457031 181.34183594 -119.65164062 180.37117188 -120.01953125 179.37109375 C-125.09194909 165.40769633 -126.52929771 151.06208742 -126.4375 136.3125 C-126.43606995 135.56124847 -126.43463989 134.80999695 -126.4331665 134.03598022 C-126.2811561 101.49587737 -116.26585203 70.23368316 -94.9375 45.3125 C-94.51388184 44.8067041 -94.09026367 44.3009082 -93.65380859 43.77978516 C-75.48593231 22.20927541 -50.42991398 8.00489971 -22.9375 2.3125 C-22.22021729 2.14113525 -21.50293457 1.96977051 -20.76391602 1.79321289 C-13.81666805 0.22267091 -7.10720832 -0.03397182 0 0 Z " fill="#B1FBE3" transform="translate(3658.9375,966.6875)"/>
<path d="M0 0 C0.68720123 0.00149048 1.37440247 0.00298096 2.08242798 0.0045166 C16.96282583 0.06262029 29.87924515 2.06913363 43.875 7.3125 C44.66648437 7.58578125 45.45796875 7.8590625 46.2734375 8.140625 C59.836579 13.09725478 71.81587499 21.17272726 82.875 30.3125 C83.64585937 30.9415625 84.41671875 31.570625 85.2109375 32.21875 C97.89799633 42.91282258 107.06782193 56.83061365 114.875 71.3125 C115.34808594 72.15296875 115.82117187 72.9934375 116.30859375 73.859375 C120.31008577 81.2889365 122.71225034 89.1969052 124.875 97.3125 C125.07544922 98.04210938 125.27589844 98.77171875 125.48242188 99.5234375 C135.19591303 136.33916134 128.96488682 176.8028778 109.98486328 209.47314453 C104.90575752 217.89065065 98.61104462 225.19122407 91.875 232.3125 C91.06546875 233.19808594 90.2559375 234.08367187 89.421875 234.99609375 C67.52237574 258.10858922 36.30787293 270.24669704 4.82421875 271.62890625 C-8.60914329 271.99071285 -21.14039649 270.76273865 -34.125 267.3125 C-35.22714844 267.02375 -36.32929688 266.735 -37.46484375 266.4375 C-69.44361255 256.8224071 -96.87454185 232.3267734 -112.8125 203.375 C-131.00900082 168.66640965 -133.35044148 126.51814757 -121.82421875 89.33203125 C-119.5275107 82.31998146 -116.57354592 75.83697354 -113.125 69.3125 C-112.81304688 68.71356934 -112.50109375 68.11463867 -112.1796875 67.49755859 C-107.71225251 58.99172581 -102.48784349 51.53902843 -96.125 44.3125 C-95.41601562 43.47074219 -94.70703125 42.62898437 -93.9765625 41.76171875 C-76.12973568 21.04780243 -51.70608017 7.81620488 -25.125 2.3125 C-24.4330957 2.14113525 -23.74119141 1.96977051 -23.02832031 1.79321289 C-15.38190863 0.0208082 -7.81795706 -0.04174142 0 0 Z " fill="#B1FBE3" transform="translate(3120.125,966.6875)"/>
<path d="M0 0 C16.25190416 15.11711455 25.62955115 33.66172803 31.8125 54.75 C32.09383789 55.60791138 32.09383789 55.60791138 32.38085938 56.4831543 C33.0215756 59.84800164 32.8125 63.32469492 32.8125 66.75 C-45.0675 66.75 -122.9475 66.75 -203.1875 66.75 C-200.2272147 43.0677176 -188.26354054 20.93877709 -171.54199219 4.12353516 C-170.36919953 2.93425406 -169.23183961 1.71022718 -168.1015625 0.48046875 C-125.03634646 -45.58295853 -44.44696068 -39.61326366 0 0 Z " fill="#B1FBE3" transform="translate(2326.1875,992.25)"/>
</svg>
